{
  "accessors": [
    {
      "bufferView": 1,
      "componentType": 5126,
      "count": 12714,
      "max": [
        1.7975399494171143,
        0.4424799978733063,
        1.7620500326156616
      ],
      "min": [
        -1.7975399494171143,
        -0.3352999985218048,
        -0.5728499889373779
      ],
      "type": "VEC3"
    },
    {
      "bufferView": 1,
      "byteOffset": 152568,
      "componentType": 5126,
      "count": 12714,
      "max": [
        1.0,
        0.9999997019767761,
        0.9999316930770874
      ],
      "min": [
        -0.9999873042106628,
        -0.9998156428337097,
        -0.9988864660263062
      ],
      "type": "VEC3"
    },
    {
      "bufferView": 0,
      "componentType": 5125,
      "count": 71808,
      "type": "SCALAR"
    },
    {
      "bufferView": 1,
      "byteOffset": 305136,
      "componentType": 5126,
      "count": 474,
      "max": [
        0.16704000532627106,
        0.0684100016951561,
        1.6041899919509888
      ],
      "min": [
        -0.16704000532627106,
        -0.1640399992465973,
        0.8955900073051453
      ],
      "type": "VEC3"
    },
    {
      "bufferView": 1,
      "byteOffset": 310824,
      "componentType": 5126,
      "count": 474,
      "max": [
        0.9997205138206482,
        0.9959471821784973,
        0.7022228240966797
      ],
      "min": [
        -0.9997205138206482,
        -0.9987034797668457,
        -0.20072579383850098
      ],
      "type": "VEC3"
    },
    {
      "bufferView": 0,
      "byteOffset": 287232,
      "componentType": 5125,
      "count": 2304,
      "type": "SCALAR"
    },
    {
      "bufferView": 1,
      "byteOffset": 316512,
      "componentType": 5126,
      "count": 7501,
      "max": [
        0.7478799819946289,
        0.18951000273227692,
        1.3903499841690063
      ],
      "min": [
        -0.7478799819946289,
        -0.7008500099182129,
        -1.2949199676513672
      ],
      "type": "VEC3"
    },
    {
      "bufferView": 1,
      "byteOffset": 406524,
      "componentType": 5126,
      "count": 7501,
      "max": [
        0.999987781047821,
        0.9998986124992371,
        0.9999967217445374
      ],
      "min": [
        -0.999987781047821,
        -0.9998485445976257,
        -0.9999968409538269
      ],
      "type": "VEC3"
    },
    {
      "bufferView": 0,
      "byteOffset": 296448,
      "componentType": 5125,
      "count": 44448,
      "type": "SCALAR"
    },
    {
      "bufferView": 1,
      "byteOffset": 496536,
      "componentType": 5126,
      "count": 501,
      "max": [
        0.10487999767065048,
        -0.16368000209331512,
        1.0955499410629272
      ],
      "min": [
        -0.10487999767065048,
        -0.5994799733161926,
        1.0252599716186523
      ],
      "type": "VEC3"
    },
    {
      "bufferView": 1,
      "byteOffset": 502548,
      "componentType": 5126,
      "count": 501,
      "max": [
        0.999680757522583,
        0.9515765309333801,
        0.999900758266449
      ],
      "min": [
        -0.999680757522583,
        -0.5049164891242981,
        -0.999989926815033
      ],
      "type": "VEC3"
    },
    {
      "bufferView": 0,
      "byteOffset": 474240,
      "componentType": 5125,
      "count": 2880,
      "type": "SCALAR"
    }
  ],
  "asset": {
    "extras": {
      "author": "SteveTheDragon (https://sketchfab.com/SteveTheDragon)",
      "license": "CC-BY-4.0 (http://creativecommons.org/licenses/by/4.0/)",
      "source": "https://sketchfab.com/3d-models/daffy-duck-57b3d5631e4649da907977353aece0c8",
      "title": "Daffy Duck"
    },
    "generator": "Sketchfab-12.68.0",
    "version": "2.0"
  },
  "bufferViews": [
    {
      "buffer": 0,
      "byteLength": 485760,
      "name": "floatBufferViews",
      "target": 34963
    },
    {
      "buffer": 0,
      "byteLength": 508560,
      "byteOffset": 485760,
      "byteStride": 12,
      "name": "floatBufferViews",
      "target": 34962
    }
  ],
  "buffers": [
    {
      "byteLength": 994320,
      "uri": "scene.bin"
    }
  ],
  "materials": [
    {
      "doubleSided": true,
      "name": "Material",
      "pbrMetallicRoughness": {
        "baseColorFactor": [
          0.012216798961162567,
          0.012216798961162567,
          0.012216798961162567,
          1.0
        ],
        "metallicFactor": 0.0,
        "roughnessFactor": 0.6
      }
    },
    {
      "doubleSided": true,
      "name": "Material.001",
      "pbrMetallicRoughness": {
        "baseColorFactor": [
          0.800000011920929,
          0.800000011920929,
          0.800000011920929,
          1.0
        ],
        "metallicFactor": 0.0,
        "roughnessFactor": 0.6
      }
    },
    {
      "doubleSided": true,
      "name": "Material.002",
      "pbrMetallicRoughness": {
        "baseColorFactor": [
          0.8000000715255737,
          0.34561464190483093,
          0.009802545420825481,
          1.0
        ],
        "metallicFactor": 0.0,
        "roughnessFactor": 0.6
      }
    },
    {
      "doubleSided": true,
      "name": "Material.003",
      "pbrMetallicRoughness": {
        "baseColorFactor": [
          0.8000000715255737,
          0.2509189546108246,
          0.5866007804870605,
          1.0
        ],
        "metallicFactor": 0.0,
        "roughnessFactor": 0.6
      }
    }
  ],
  "meshes": [
    {
      "name": "Cube_0",
      "primitives": [
        {
          "attributes": {
            "NORMAL": 1,
            "POSITION": 0
          },
          "indices": 2,
          "material": 0,
          "mode": 4
        }
      ]
    },
    {
      "name": "Cube_1",
      "primitives": [
        {
          "attributes": {
            "NORMAL": 4,
            "POSITION": 3
          },
          "indices": 5,
          "material": 1,
          "mode": 4
        }
      ]
    },
    {
      "name": "Cube_2",
      "primitives": [
        {
          "attributes": {
            "NORMAL": 7,
            "POSITION": 6
          },
          "indices": 8,
          "material": 2,
          "mode": 4
        }
      ]
    },
    {
      "name": "Cube_3",
      "primitives": [
        {
          "attributes": {
            "NORMAL": 10,
            "POSITION": 9
          },
          "indices": 11,
          "material": 3,
          "mode": 4
        }
      ]
    }
  ],
  "nodes": [
    {
      "children": [
        1
      ],
      "matrix": [
        1.0,
        0.0,
        0.0,
        0.0,
        0.0,
        2.220446049250313e-16,
        -1.0,
        0.0,
        0.0,
        1.0,
        2.220446049250313e-16,
        0.0,
        0.0,
        0.0,
        0.0,
        1.0
      ],
      "name": "Sketchfab_model"
    },
    {
      "children": [
        2,
        4
      ],
      "name": "Root"
    },
    {
      "children": [
        3
      ],
      "matrix": [
        -0.29086000000000006,
        0.9551700000000001,
        -0.05519000000000001,
        0.0,
        -0.7711,
        -0.19988000000000003,
        0.6045200000000001,
        0.0,
        0.5663900000000001,
        0.21839000000000003,
        0.7946700000000001,
        0.0,
        4.076250000000001,
        1.00545,
        5.903860000000001,
        1.0
      ],
      "name": "Lamp"
    },
    {
      "name": "Lamp"
    },
    {
      "children": [
        5,
        6,
        7,
        8
      ],
      "matrix": [
        1.0,
        0.0,
        0.0,
        0.0,
        0.0,
        1.0,
        0.0,
        0.0,
        0.0,
        0.0,
        1.0,
        0.0,
        0.0,
        0.0,
        1.2934199999999998,
        1.0
      ],
      "name": "Cube"
    },
    {
      "mesh": 0,
      "name": "Cube_0"
    },
    {
      "mesh": 1,
      "name": "Cube_1"
    },
    {
      "mesh": 2,
      "name": "Cube_2"
    },
    {
      "mesh": 3,
      "name": "Cube_3"
    }
  ],
  "scene": 0,
  "scenes": [
    {
      "name": "Sketchfab_Scene",
      "nodes": [
        0
      ]
    }
  ]
}
